<?xml version="1.0" encoding="iso-8859-1"?>
<!-- Uploaded to: SVG Repo, www.svgrepo.com, Generator: SVG Repo Mixer Tools -->
<svg height="800px" width="800px" version="1.1" id="Layer_1" xmlns="http://www.w3.org/2000/svg" xmlns:xlink="http://www.w3.org/1999/xlink" 
	 viewBox="0 0 512 512" xml:space="preserve">
<path style="fill:#54B558;" d="M322.585,401.79c-17.356,4.142-194.886-74.396-211.628-73.977
	C21.862,199.319,82.359,55.519,82.359,55.519c15.482,76.224,85.179,93.813,138.81,136.776
	C286.982,232.885,308.133,391.317,322.585,401.79z"/>
<path style="fill:#67CE6F;" d="M332.481,449.294c-23.045,23.78-56.054,39.389-89.272,38.185C52.163,480.492,0.724,302.091,0,299.543
	c16.525,30.577,59.13,29.563,110.957,28.271c16.742-0.42,34.453-0.858,52.563-0.279c100.512-26.345,203.785-12.41,214.259-26.862
	C381.311,315.461,360.74,430.401,332.481,449.294z"/>
<path style="fill:#54B558;" d="M258.276,408.776c-4.257,0.501-8.75,1.109-13.285,1.525c-4.518,0.483-9.087,0.742-13.632,0.984
	c-4.56,0.124-9.108,0.3-13.656,0.151c-2.271-0.063-4.543-0.012-6.808-0.169l-6.787-0.418c-18.075-1.265-35.844-4.558-53.068-9.331
	c-17.219-4.788-34.011-10.817-50.085-18.285c-8.159-3.452-15.943-7.694-23.811-11.684l-2.943-1.509
	c-0.976-0.512-1.918-1.093-2.878-1.636l-5.732-3.31l-11.441-6.608l11.968,5.587l5.972,2.788c0.999,0.456,1.98,0.949,2.993,1.373
	l3.053,1.243c8.154,3.278,16.186,6.791,24.529,9.49l6.195,2.16c2.062,0.723,4.116,1.465,6.23,2.031l12.568,3.659
	c2.078,0.655,4.207,1.127,6.328,1.622l6.353,1.492l6.345,1.477l6.409,1.15c17.044,3.161,34.298,4.805,51.409,4.507l6.407-0.163
	c2.134-0.036,4.26-0.275,6.385-0.4c4.255-0.227,8.479-0.769,12.697-1.248c4.209-0.599,8.402-1.2,12.585-2.021
	c4.185-0.753,8.356-1.693,12.782-2.611c4.977-1.032,9.848,2.165,10.88,7.142c1.032,4.977-2.165,9.848-7.142,10.88
	c-0.259,0.054-0.517,0.096-0.775,0.127L258.276,408.776z"/>
<path style="fill:#67CE6F;" d="M250.05,298.971c-9.084-1.53-17.883-4.056-26.259-7.404c-8.36-3.402-16.195-7.721-23.63-12.482
	l-5.484-3.691l-5.272-3.939c-1.781-1.279-3.424-2.721-5.119-4.094c-1.688-1.383-3.376-2.761-4.969-4.239
	c-6.557-5.717-12.607-11.909-18.376-18.289c-5.775-6.378-11.193-13.03-16.294-19.886c-5.114-6.845-9.947-13.87-14.516-21.044
	c-4.567-7.175-8.869-14.499-12.913-21.951c-4.033-7.454-7.873-15.009-11.259-22.757c4.071,7.405,8.564,14.554,13.227,21.569
	c4.673,7.01,9.576,13.853,14.709,20.499c5.132,6.646,10.494,13.094,16.081,19.309c5.574,6.226,11.409,12.189,17.513,17.81
	c6.097,5.622,12.397,10.993,19.048,15.801c1.624,1.256,3.323,2.4,5.016,3.545c1.699,1.136,3.346,2.346,5.104,3.373l5.193,3.192
	l5.32,2.914c7.158,3.709,14.505,6.921,22.055,9.216c7.561,2.241,15.241,3.682,22.919,4.279l0.15,0.011
	c5.069,0.395,8.858,4.824,8.464,9.892c-0.393,5.069-4.824,8.858-9.892,8.464C250.594,299.051,250.312,299.014,250.05,298.971z"/>
<path style="fill:#F24141;" d="M457.475,223.991c-6.166-1.753-10.285-2.611-10.285-2.611s2.66-109.686-61.781-60.874
	c-9.757,7.392-19.503,17.995-28.145,30.314c-4.119-14.477-9.868-27.679-16.659-37.841c-48.64-72.74-78.317,37.326-78.317,37.326
	s-109.342-9.12-64.404,58.104c7.943,11.878,20.287,24.063,34.74,34.531c-10.897,2.599-21.28,6.141-30.449,10.395
	c-5.43,2.513-10.432,5.283-14.857,8.237c-72.74,48.64,37.326,78.293,37.326,78.293s-9.12,109.355,58.104,64.416
	c2.219-1.483,4.45-3.126,6.668-4.903c9.696-7.723,19.343-18.081,27.863-29.836c4.156,17.358,10.689,33.416,18.632,45.294
	c48.628,72.764,78.305-37.314,78.305-37.314s109.342,9.096,64.416-58.091c-5.577-8.348-13.325-16.818-22.432-24.737
	c-5.676-4.952-11.89-9.684-18.448-14.048c19.846-5.136,38.343-13.459,51.313-23.29C545.427,254.661,483.388,231.358,457.475,223.991
	z"/>
<ellipse transform="matrix(-0.7071 -0.7071 0.7071 -0.7071 362.0241 745.9117)" style="fill:#D83535;" cx="335.495" cy="297.978" rx="34.842" ry="27.961"/>
<ellipse transform="matrix(-0.7071 -0.7071 0.7071 -0.7071 379.7971 738.5755)" style="fill:#AF1E1E;" cx="342.863" cy="290.629" rx="21.866" ry="17.547"/>
<path style="fill:#F9E178;" d="M439.627,110.934c-6.546,42.511-22.052,103.385-58.839,151.976
	c-12.147,16.042-23.479,26.62-31.43,33.001c-2.764,2.219-6.768,1.84-9.138-0.796c-0.031-0.034-0.061-0.067-0.092-0.102
	c-2.578-2.843-2.172-7.263,0.816-9.669c0.766-0.617,1.569-1.279,2.407-1.988c7.171-6.056,16.904-15.543,27.25-29.334
	c19.147-25.534,44.362-71.44,55.701-145.136c0.564-3.69,3.996-6.215,7.686-5.639C437.665,103.812,440.191,107.257,439.627,110.934z"
	/>
<path style="fill:#D6BA30;" d="M464.793,75.864c-2.905,14.661-8.777,27.103-15.592,34.641c-5.161,5.737-10.873,8.642-16.242,7.576
	c-12.454-2.476-18.399-25.387-13.276-51.178c5.124-25.791,19.38-44.705,31.834-42.229c0.306,0.061,0.613,0.135,0.919,0.221
	C464.266,28.302,469.794,50.71,464.793,75.864z"/>
<path style="fill:#F2D546;" d="M464.793,75.864c-2.905,14.661-8.777,27.103-15.592,34.641
	c-11.829-3.408-17.358-25.816-12.356-50.957c2.905-14.661,8.777-27.103,15.592-34.654C464.266,28.302,469.794,50.71,464.793,75.864z
	"/>
<g>
	<path style="fill:#D83535;" d="M456.2,334.694c-64.809,6.656-117.666-12.172-117.666-12.172
		c39.226,4.903,99.217-1.875,99.217-1.875C444.309,325.01,450.524,329.742,456.2,334.694z"/>
	<path style="fill:#D83535;" d="M457.475,223.991c-9.782,17.725-33.943,20.079-33.943,20.079c16.34-6.534,23.658-22.69,23.658-22.69
		S451.309,222.238,457.475,223.991z"/>
	<path style="fill:#D83535;" d="M357.264,190.82c0,0-17.272,23.009-17.995,77.349c0,0-24.381-34.261,1.336-115.19
		C347.397,163.142,353.146,176.344,357.264,190.82z"/>
	<path style="fill:#D83535;" d="M317.278,409.542c-8.519,11.756-18.167,22.114-27.863,29.836
		c-0.834-69.994,32.778-102.552,32.778-102.552C307.484,373.601,317.278,409.542,317.278,409.542z"/>
	<path style="fill:#D83535;" d="M303.917,291.496c0,0-38.061,19.576-101.742,1.839c9.169-4.254,19.552-7.796,30.449-10.395
		C232.624,282.94,253.242,291.496,303.917,291.496z"/>
</g>
</svg>